<?xml version="1.0" standalone="no"?>
<!DOCTYPE svg PUBLIC "-//W3C//DTD SVG 20010904//EN"
 "http://www.w3.org/TR/2001/REC-SVG-20010904/DTD/svg10.dtd">
<svg version="1.0" xmlns="http://www.w3.org/2000/svg"
 width="1024.000000pt" height="1024.000000pt" viewBox="0 0 1024.000000 1024.000000"
 preserveAspectRatio="xMidYMid meet">

<g transform="translate(0.000000,1024.000000) scale(0.100000,-0.100000)"
fill="#000000" stroke="none">
<path d="M4295 7779 c-541 -13 -813 -46 -1010 -122 -330 -126 -506 -379 -569
-817 -39 -270 -41 -339 -41 -1390 1 -1070 6 -1239 45 -1478 85 -514 310 -760
780 -856 221 -45 462 -62 1065 -77 717 -18 1500 -2 1895 37 626 62 884 239
1024 704 14 47 28 105 30 130 l6 45 -11 -45 c-39 -168 -98 -318 -165 -421 -51
-77 -146 -177 -192 -200 -15 -8 -45 -26 -67 -40 -39 -26 -124 -59 -157 -62 -9
-1 -15 -3 -12 -6 2 -3 -21 -13 -53 -22 -31 -10 -59 -16 -62 -14 -2 3 0 5 5 5
6 0 19 7 30 16 10 8 14 13 8 10 -6 -3 -11 1 -11 8 0 8 8 11 19 8 12 -3 17 0
15 9 -2 8 -2 11 0 7 3 -5 16 -8 30 -8 23 0 24 2 12 17 -8 10 -9 14 -2 10 6 -4
14 -3 18 3 3 6 -4 10 -17 11 -13 0 -17 3 -10 6 9 3 7 9 -6 21 -10 10 -12 13
-5 9 6 -5 20 -7 30 -4 14 3 11 7 -14 16 -23 9 -30 17 -26 29 5 12 2 14 -11 9
-9 -4 -15 -3 -11 2 3 6 -3 14 -12 20 -16 9 -16 10 -1 11 9 0 18 -6 21 -12 2
-7 7 -10 11 -7 4 4 0 14 -9 23 -22 22 -10 39 17 25 15 -8 17 -13 8 -19 -8 -5
-9 -10 -2 -14 6 -3 13 -2 16 3 8 12 -3 41 -15 41 -5 0 -9 6 -9 14 0 8 -6 16
-12 19 -8 2 -1 10 15 18 27 12 27 14 11 26 -10 7 -23 13 -28 13 -6 0 -3 -5 8
-11 15 -9 16 -13 5 -20 -21 -13 -24 -11 -24 20 -1 16 3 27 9 24 5 -3 6 -1 2 5
-4 7 -14 12 -22 12 -9 0 -14 6 -11 13 2 6 -3 18 -12 25 -9 8 -11 11 -5 8 7 -3
14 5 17 20 6 33 -2 66 -15 58 -5 -3 -7 -13 -4 -21 3 -8 2 -12 -3 -9 -5 3 -11
15 -14 26 -3 11 -1 18 4 14 5 -3 9 -1 9 5 0 5 -5 13 -11 16 -7 5 -4 13 8 25
19 19 38 17 26 -3 -4 -7 1 -6 10 2 16 13 16 15 -5 25 -13 7 -25 8 -26 4 -5
-10 -22 0 -22 13 0 6 5 7 10 4 6 -3 10 2 10 12 0 14 2 15 9 5 7 -11 10 -10 15
3 9 24 8 25 -11 18 -12 -5 -14 -3 -8 8 8 12 6 12 -8 0 -10 -8 -20 -11 -24 -7
-3 3 -1 6 5 6 7 0 12 5 12 11 0 6 6 17 14 25 11 10 15 11 19 1 2 -6 7 -9 11
-6 4 4 1 13 -6 21 -25 27 -52 63 -38 51 21 -19 30 -16 30 13 0 15 -4 23 -10
19 -6 -4 -9 -3 -8 2 2 4 -2 8 -7 8 -6 0 -9 -4 -7 -9 2 -5 -4 -4 -12 4 -17 14
-20 21 -8 19 21 -4 23 3 6 24 l-19 22 26 -23 26 -22 10 23 c9 18 8 24 -2 24
-7 0 -11 -7 -8 -16 3 -11 1 -11 -7 2 -8 12 -8 22 -2 30 13 16 18 49 10 62 -4
6 -3 17 2 25 7 11 10 7 15 -13 4 -15 11 -24 16 -21 5 3 5 13 -1 24 -7 13 -6
20 3 23 6 3 1 6 -14 6 -14 1 -31 -5 -38 -12 -10 -10 -11 -9 -6 5 7 19 32 31
46 22 5 -3 8 0 7 8 -2 7 2 12 9 11 14 -3 25 24 13 32 -6 4 -10 11 -10 16 0 6
3 8 8 6 4 -3 7 6 7 19 0 13 -4 24 -9 24 -5 0 -6 3 -3 7 4 3 3 11 -3 17 -5 7
-5 17 0 26 8 12 10 10 10 -8 0 -20 4 -22 23 -17 22 7 22 7 2 -9 -11 -8 -15
-16 -9 -16 17 0 47 37 41 52 -3 8 -6 6 -6 -6 -1 -15 -4 -16 -16 -6 -8 6 -14
15 -13 18 0 4 0 14 -1 22 -1 13 -2 13 -11 0 -5 -8 -10 -10 -10 -5 0 13 16 37
24 36 18 -3 19 1 1 9 -16 7 -16 9 -4 9 19 1 27 16 24 49 -1 16 5 24 23 29 21
5 22 7 8 15 -9 5 -16 20 -16 34 0 14 4 23 8 20 5 -3 9 8 10 24 0 24 -4 30 -19
30 -13 0 -18 -4 -13 -12 4 -7 3 -8 -5 -4 -6 4 -27 -2 -46 -14 -19 -12 -35 -19
-35 -17 0 3 17 16 38 28 65 40 313 228 427 324 153 129 243 225 252 266 5 20
10 -86 14 -251 3 -157 4 145 3 670 -1 598 -6 996 -13 1065 -15 156 -32 277
-38 271 -3 -3 0 -40 6 -83 6 -43 16 -136 21 -208 13 -152 26 -993 16 -984 -4
4 -10 69 -13 145 -3 77 -10 141 -14 142 -5 2 -9 10 -9 18 0 9 -5 12 -11 9 -6
-4 -5 2 3 14 7 12 16 21 20 21 17 0 7 26 -14 39 -21 13 -22 13 -9 -3 8 -9 11
-19 7 -23 -3 -3 -6 -2 -6 3 0 6 -10 21 -22 34 -22 24 -34 55 -17 44 5 -3 9 0
9 5 0 6 5 11 12 11 6 0 3 -9 -7 -21 -19 -20 -19 -20 5 -11 14 5 31 7 38 5 6
-3 12 0 12 6 0 6 -7 11 -15 11 -8 0 -14 5 -13 11 2 6 -12 17 -30 23 -26 9 -30
14 -20 24 10 10 10 15 -2 22 -9 6 -17 5 -23 -3 -10 -15 3 42 15 66 5 9 14 17
21 17 7 0 18 10 26 23 l14 22 -23 -20 -22 -20 22 38 c13 21 28 36 35 34 11 -5
12 38 2 103 -2 14 -5 44 -5 68 -1 23 -6 42 -11 42 -4 0 -7 -11 -6 -25 2 -14
-1 -23 -6 -19 -5 3 -9 12 -9 21 0 11 -7 14 -25 11 -14 -3 -25 -1 -25 3 0 5 -5
9 -11 9 -5 0 -7 -4 -4 -10 3 -5 1 -10 -5 -10 -7 0 -10 6 -7 13 2 6 12 11 21
11 9 -1 16 2 16 7 0 8 -7 10 -26 8 -11 -1 -32 36 -27 45 4 5 1 6 -6 2 -6 -4
-8 -12 -5 -18 5 -7 1 -9 -9 -5 -9 3 -18 -1 -21 -10 -6 -14 -8 -14 -20 3 -8 10
-12 22 -10 26 8 13 -11 9 -25 -4 -11 -11 -12 -10 -5 2 23 41 11 67 -22 46 -22
-15 -24 -15 -34 3 -5 11 -10 27 -10 35 0 9 -7 16 -16 16 -8 0 -12 4 -9 10 3 6
-1 7 -9 4 -9 -3 -16 -11 -16 -16 0 -7 -5 -6 -13 1 -10 8 -17 7 -27 -2 -12 -10
-12 -9 -2 4 7 9 12 21 10 25 -1 5 4 20 12 34 12 22 12 24 -2 12 -12 -10 -18
-10 -27 2 -9 11 -8 18 5 31 17 16 17 18 1 27 -10 5 -15 13 -12 18 3 5 1 12 -5
15 -6 4 -9 1 -8 -7 2 -7 -2 -12 -9 -11 -7 2 -10 -4 -6 -13 4 -11 8 -12 13 -4
11 17 22 -4 14 -25 -6 -13 -9 -14 -16 -3 -5 8 -7 3 -4 -16 4 -21 2 -26 -5 -19
-6 6 -12 22 -12 36 -1 14 -6 23 -11 19 -5 -3 -6 3 -2 14 6 15 2 14 -20 -6
l-28 -25 17 28 c12 18 13 27 6 27 -7 0 -4 9 7 23 10 12 15 19 10 15 -14 -11
-36 11 -29 29 5 12 1 14 -15 9 -17 -6 -21 -4 -16 8 4 11 0 14 -15 11 -12 -2
-19 0 -16 6 4 5 14 9 23 9 14 1 14 2 -3 12 -11 6 -24 16 -28 22 -6 7 -7 4 -3
-6 4 -13 0 -18 -14 -18 -22 0 -27 15 -9 26 8 4 7 9 -2 15 -11 8 -8 14 14 33
27 22 28 23 5 21 -24 -2 -48 16 -48 35 0 7 -6 8 -19 0 -25 -13 -41 -13 -41 1
0 6 6 9 13 6 8 -3 20 -1 28 3 8 5 19 4 26 -2 10 -8 12 -7 8 4 -3 8 -18 21 -32
29 -22 12 -27 11 -39 -6 -13 -18 -14 -17 -14 8 0 21 4 25 18 21 9 -3 1 8 -18
25 -19 17 -40 29 -47 26 -7 -2 -15 1 -19 7 -4 6 -3 8 2 5 22 -13 34 8 20 35
-8 15 -11 30 -8 34 4 4 2 5 -3 1 -6 -3 -17 -2 -25 4 -12 7 -12 9 -1 9 8 0 2 9
-13 21 -15 12 -24 24 -21 27 3 4 10 0 15 -8 8 -13 10 -12 10 2 0 9 6 19 13 22
6 4 2 4 -11 2 -25 -5 -38 14 -28 40 5 13 9 14 20 5 12 -10 13 -8 9 9 -4 14
-11 19 -22 15 -8 -3 -12 -3 -9 1 4 3 -1 14 -10 23 -10 9 -11 12 -3 6 12 -8 13
-6 8 8 -4 10 -7 21 -7 23 0 3 -4 3 -9 0 -5 -4 -7 3 -4 14 3 11 10 20 17 20 6
0 3 5 -7 11 -9 5 -22 7 -27 4 -6 -3 -11 2 -12 12 0 10 -2 24 -2 31 -1 7 -8 17
-16 22 -10 6 -11 10 -3 10 7 0 10 7 7 15 -4 9 0 15 7 15 9 1 8 6 -5 15 -11 8
-31 12 -45 10 -14 -3 -20 -2 -13 1 6 3 12 10 12 15 0 6 -9 5 -21 -2 -17 -8
-20 -8 -17 2 5 15 98 25 98 10 0 -5 9 -7 20 -4 42 11 265 -49 354 -94 120 -61
248 -180 312 -288 33 -56 44 -60 12 -4 -37 66 -122 163 -185 211 -181 139
-385 198 -788 228 -330 25 -1466 36 -2100 19z m2330 -198 c3 -5 2 -12 -3 -15
-5 -3 -9 1 -9 9 0 17 3 19 12 6z m70 -161 c-24 -26 -32 -18 -9 9 10 11 20 18
23 16 2 -3 -4 -14 -14 -25z m36 -133 c-10 -9 -11 -8 -5 6 3 10 9 15 12 12 3
-3 0 -11 -7 -18z m23 -19 c-5 -8 -2 -9 9 -5 17 6 31 -5 20 -16 -9 -9 -44 13
-38 24 4 5 8 9 11 9 3 0 2 -5 -2 -12z m118 -192 c10 6 11 4 0 -7 -10 -11 -15
-10 -30 6 -15 17 -15 18 0 6 9 -7 23 -9 30 -5z m43 -16 c3 -6 -4 -10 -17 -10
-18 0 -20 2 -8 10 19 12 18 12 25 0z m7 -78 c-2 -7 -5 -12 -6 -10 -1 2 -8 12
-16 22 -10 13 -10 17 -2 12 8 -5 12 0 13 16 1 23 1 23 8 -2 4 -14 6 -31 3 -38z
m-442 -287 l0 -324 -922 -3 c-921 -3 -923 -3 -988 -25 -125 -43 -179 -114
-180 -236 0 -153 84 -228 285 -256 39 -6 183 -17 320 -26 583 -36 792 -57 965
-95 369 -82 550 -244 637 -567 25 -93 27 -111 27 -338 1 -253 -4 -296 -50
-428 -34 -100 -78 -170 -151 -243 -116 -116 -324 -197 -586 -226 -85 -10 -367
-13 -1152 -11 l-1040 1 -3 330 -2 331 967 4 c1063 4 1031 2 1146 65 91 49 129
133 108 234 -22 99 -80 154 -203 193 -131 41 -254 55 -723 80 -447 24 -651 52
-831 114 -178 61 -311 173 -382 321 -60 127 -75 203 -80 429 -9 389 44 577
208 742 119 120 277 187 531 224 194 29 307 32 1217 34 l882 1 0 -325z m547
210 c0 -8 -6 -15 -14 -15 -17 0 -17 17 0 23 6 3 12 6 13 6 0 1 1 -6 1 -14z
m20 -31 c-3 -3 -12 -4 -19 -1 -8 3 -5 6 6 6 11 1 17 -2 13 -5z m164 -198 c5 3
9 0 9 -6 0 -15 -23 -7 -26 8 -1 7 0 8 3 2 2 -5 9 -8 14 -4z m4 -35 c-9 -8 -36
-10 -30 -2 2 4 11 8 20 8 8 0 13 -3 10 -6z m77 -20 c-8 -4 -13 -11 -12 -15 1
-4 -1 -12 -4 -19 -3 -9 -1 26 3 41 1 1 7 2 14 2 9 0 9 -2 -1 -9z m32 -60 c3
-5 -1 -14 -8 -20 -12 -10 -13 -8 -9 8 6 23 9 25 17 12z m66 -16 c7 -9 8 -15 2
-15 -5 0 -12 7 -16 15 -3 8 -4 15 -2 15 2 0 9 -7 16 -15z m35 -425 c3 -5 2
-10 -4 -10 -5 0 -13 5 -16 10 -3 6 -2 10 4 10 5 0 13 -4 16 -10z m76 -137 c13
-16 12 -17 -3 -4 -17 13 -22 21 -14 21 2 0 10 -8 17 -17z m-16 -13 c3 -5 2
-10 -4 -10 -5 0 -13 5 -16 10 -3 6 -2 10 4 10 5 0 13 -4 16 -10z m-560 -1500
c3 -5 1 -10 -4 -10 -6 0 -11 5 -11 10 0 6 2 10 4 10 3 0 8 -4 11 -10z m-70
-260 c-4 -6 -1 -17 5 -25 15 -18 3 -20 -13 -2 -18 19 -19 37 -1 37 8 0 12 -5
9 -10z m-35 -30 c0 -5 -2 -10 -4 -10 -3 0 -8 5 -11 10 -3 6 -1 10 4 10 6 0 11
-4 11 -10z m-10 -146 c0 -8 -5 -12 -10 -9 -6 4 -8 11 -5 16 9 14 15 11 15 -7z
m-30 -394 c0 -5 -7 -7 -15 -4 -8 4 -15 8 -15 10 0 2 7 4 15 4 8 0 15 -4 15
-10z m10 -72 c0 -4 -7 -8 -15 -8 -8 0 -15 4 -15 8 0 5 7 9 15 9 8 0 15 -4 15
-9z m20 -26 c0 -15 -11 -21 -27 -15 -12 5 -12 7 -1 14 17 11 28 11 28 1z m54
-133 c-11 -18 -30 -8 -30 16 0 23 1 23 18 8 10 -8 15 -20 12 -24z m-27 -35
c-3 -3 -12 -4 -19 -1 -8 3 -5 6 6 6 11 1 17 -2 13 -5z"/>
<path d="M6675 7591 c-3 -5 -2 -12 3 -15 5 -3 9 1 9 9 0 17 -3 19 -12 6z"/>
<path d="M6708 7583 c7 -3 16 -2 19 1 4 3 -2 6 -13 5 -11 0 -14 -3 -6 -6z"/>
<path d="M6710 7566 c0 -2 7 -7 16 -10 8 -3 12 -2 9 4 -6 10 -25 14 -25 6z"/>
<path d="M6730 7389 c0 -5 5 -7 10 -4 6 3 10 8 10 11 0 2 -4 4 -10 4 -5 0 -10
-5 -10 -11z"/>
<path d="M7406 7235 c24 -69 73 -188 74 -179 0 19 -37 119 -59 160 -12 21 -19
30 -15 19z"/>
<path d="M6878 7183 c7 -3 16 -2 19 1 4 3 -2 6 -13 5 -11 0 -14 -3 -6 -6z"/>
<path d="M6950 7030 c-13 -9 -13 -10 0 -10 8 0 22 5 30 10 13 9 13 10 0 10 -8
0 -22 -5 -30 -10z"/>
<path d="M7481 7024 c0 -11 3 -14 6 -6 3 7 2 16 -1 19 -3 4 -6 -2 -5 -13z"/>
<path d="M6990 6996 c0 -2 7 -7 16 -10 8 -3 12 -2 9 4 -6 10 -25 14 -25 6z"/>
<path d="M7491 6984 c0 -11 3 -14 6 -6 3 7 2 16 -1 19 -3 4 -6 -2 -5 -13z"/>
<path d="M7502 6940 c0 -14 2 -19 5 -12 2 6 2 18 0 25 -3 6 -5 1 -5 -13z"/>
<path d="M7081 6874 c0 -11 3 -14 6 -6 3 7 2 16 -1 19 -3 4 -6 -2 -5 -13z"/>
<path d="M7195 6741 c-6 -11 13 -26 22 -17 4 3 1 6 -6 6 -7 0 -9 5 -6 10 3 6
4 10 1 10 -3 0 -7 -4 -11 -9z"/>
<path d="M7157 6713 c3 -7 9 -10 14 -7 14 8 11 21 -5 21 -8 0 -12 -6 -9 -14z"/>
<path d="M7450 6189 c0 -15 18 -19 23 -6 3 8 -1 14 -9 14 -8 0 -14 -4 -14 -8z"/>
<path d="M7485 6149 c1 -12 9 -25 18 -31 14 -7 17 -5 16 14 0 13 -3 17 -6 11
-8 -21 -22 -15 -16 7 3 11 1 20 -4 20 -5 0 -9 -9 -8 -21z"/>
<path d="M7525 5961 c-3 -5 -2 -12 3 -15 5 -3 9 1 9 9 0 17 -3 19 -12 6z"/>
<path d="M7554 4370 c0 -63 1 -89 3 -57 2 31 2 83 0 115 -2 31 -3 5 -3 -58z"/>
<path d="M6930 4400 c-8 -5 -12 -12 -9 -15 4 -3 12 1 19 10 14 17 11 19 -10 5z"/>
<path d="M6921 4344 c0 -11 3 -14 6 -6 3 7 2 16 -1 19 -3 4 -6 -2 -5 -13z"/>
<path d="M7543 4170 c0 -30 2 -43 4 -27 2 15 2 39 0 55 -2 15 -4 2 -4 -28z"/>
<path d="M7526 4042 c-4 -41 -5 -76 -3 -79 7 -6 20 122 15 139 -3 7 -8 -20
-12 -60z"/>
<path d="M6853 3995 c0 -8 7 -15 15 -15 12 0 12 3 2 15 -7 8 -13 15 -15 15 -1
0 -2 -7 -2 -15z"/>
<path d="M6845 3915 c1 -14 -2 -28 -6 -31 -12 -7 -11 -24 2 -24 5 0 8 4 4 9
-3 5 -1 12 5 16 12 8 13 42 1 49 -5 4 -8 -5 -6 -19z"/>
<path d="M6840 3748 c0 -4 4 -8 9 -8 6 0 12 4 15 8 3 5 -1 9 -9 9 -8 0 -15 -4
-15 -9z"/>
<path d="M6840 3629 c0 -5 5 -7 10 -4 6 3 10 8 10 11 0 2 -4 4 -10 4 -5 0 -10
-5 -10 -11z"/>
<path d="M6845 3600 c-3 -5 1 -10 10 -10 9 0 13 5 10 10 -3 6 -8 10 -10 10 -2
0 -7 -4 -10 -10z"/>
<path d="M6860 3565 c-11 -13 -10 -14 4 -9 9 3 16 10 16 15 0 13 -6 11 -20 -6z"/>
<path d="M6921 3354 c0 -11 3 -14 6 -6 3 7 2 16 -1 19 -3 4 -6 -2 -5 -13z"/>
<path d="M6892 3316 c-1 -16 1 -18 8 -6 7 10 10 11 10 3 0 -7 5 -13 10 -13 16
0 12 14 -8 26 -15 10 -18 8 -20 -10z"/>
</g>
</svg>
